%TF.GenerationSoftware,KiCad,Pcbnew,8.0.5*%
%TF.CreationDate,2024-09-27T19:14:55-05:00*%
%TF.ProjectId,pcb.pro,7063622e-7072-46f2-9e6b-696361645f70,rev?*%
%TF.SameCoordinates,Original*%
%TF.FileFunction,Legend,Top*%
%TF.FilePolarity,Positive*%
%FSLAX46Y46*%
G04 Gerber Fmt 4.6, Leading zero omitted, Abs format (unit mm)*
G04 Created by KiCad (PCBNEW 8.0.5) date 2024-09-27 19:14:55*
%MOMM*%
%LPD*%
G01*
G04 APERTURE LIST*
%ADD10C,0.100000*%
%ADD11C,0.150000*%
%ADD12C,0.120000*%
G04 APERTURE END LIST*
D10*
X215492580Y-64658095D02*
X214683057Y-64658095D01*
X214683057Y-64658095D02*
X214587819Y-64705714D01*
X214587819Y-64705714D02*
X214540200Y-64753333D01*
X214540200Y-64753333D02*
X214492580Y-64848571D01*
X214492580Y-64848571D02*
X214492580Y-65039047D01*
X214492580Y-65039047D02*
X214540200Y-65134285D01*
X214540200Y-65134285D02*
X214587819Y-65181904D01*
X214587819Y-65181904D02*
X214683057Y-65229523D01*
X214683057Y-65229523D02*
X215492580Y-65229523D01*
X214492580Y-66229523D02*
X214492580Y-65658095D01*
X214492580Y-65943809D02*
X215492580Y-65943809D01*
X215492580Y-65943809D02*
X215349723Y-65848571D01*
X215349723Y-65848571D02*
X215254485Y-65753333D01*
X215254485Y-65753333D02*
X215206866Y-65658095D01*
D11*
X194214819Y-94146666D02*
X193738628Y-94479999D01*
X194214819Y-94718094D02*
X193214819Y-94718094D01*
X193214819Y-94718094D02*
X193214819Y-94337142D01*
X193214819Y-94337142D02*
X193262438Y-94241904D01*
X193262438Y-94241904D02*
X193310057Y-94194285D01*
X193310057Y-94194285D02*
X193405295Y-94146666D01*
X193405295Y-94146666D02*
X193548152Y-94146666D01*
X193548152Y-94146666D02*
X193643390Y-94194285D01*
X193643390Y-94194285D02*
X193691009Y-94241904D01*
X193691009Y-94241904D02*
X193738628Y-94337142D01*
X193738628Y-94337142D02*
X193738628Y-94718094D01*
X194214819Y-93194285D02*
X194214819Y-93765713D01*
X194214819Y-93479999D02*
X193214819Y-93479999D01*
X193214819Y-93479999D02*
X193357676Y-93575237D01*
X193357676Y-93575237D02*
X193452914Y-93670475D01*
X193452914Y-93670475D02*
X193500533Y-93765713D01*
X176124819Y-82073333D02*
X176839104Y-82073333D01*
X176839104Y-82073333D02*
X176981961Y-82120952D01*
X176981961Y-82120952D02*
X177077200Y-82216190D01*
X177077200Y-82216190D02*
X177124819Y-82359047D01*
X177124819Y-82359047D02*
X177124819Y-82454285D01*
X177124819Y-81073333D02*
X177124819Y-81644761D01*
X177124819Y-81359047D02*
X176124819Y-81359047D01*
X176124819Y-81359047D02*
X176267676Y-81454285D01*
X176267676Y-81454285D02*
X176362914Y-81549523D01*
X176362914Y-81549523D02*
X176410533Y-81644761D01*
X205304819Y-94718094D02*
X204304819Y-94718094D01*
X204304819Y-94718094D02*
X204304819Y-94479999D01*
X204304819Y-94479999D02*
X204352438Y-94337142D01*
X204352438Y-94337142D02*
X204447676Y-94241904D01*
X204447676Y-94241904D02*
X204542914Y-94194285D01*
X204542914Y-94194285D02*
X204733390Y-94146666D01*
X204733390Y-94146666D02*
X204876247Y-94146666D01*
X204876247Y-94146666D02*
X205066723Y-94194285D01*
X205066723Y-94194285D02*
X205161961Y-94241904D01*
X205161961Y-94241904D02*
X205257200Y-94337142D01*
X205257200Y-94337142D02*
X205304819Y-94479999D01*
X205304819Y-94479999D02*
X205304819Y-94718094D01*
X204400057Y-93765713D02*
X204352438Y-93718094D01*
X204352438Y-93718094D02*
X204304819Y-93622856D01*
X204304819Y-93622856D02*
X204304819Y-93384761D01*
X204304819Y-93384761D02*
X204352438Y-93289523D01*
X204352438Y-93289523D02*
X204400057Y-93241904D01*
X204400057Y-93241904D02*
X204495295Y-93194285D01*
X204495295Y-93194285D02*
X204590533Y-93194285D01*
X204590533Y-93194285D02*
X204733390Y-93241904D01*
X204733390Y-93241904D02*
X205304819Y-93813332D01*
X205304819Y-93813332D02*
X205304819Y-93194285D01*
X189761905Y-94394819D02*
X189761905Y-93394819D01*
X189761905Y-93394819D02*
X190000000Y-93394819D01*
X190000000Y-93394819D02*
X190142857Y-93442438D01*
X190142857Y-93442438D02*
X190238095Y-93537676D01*
X190238095Y-93537676D02*
X190285714Y-93632914D01*
X190285714Y-93632914D02*
X190333333Y-93823390D01*
X190333333Y-93823390D02*
X190333333Y-93966247D01*
X190333333Y-93966247D02*
X190285714Y-94156723D01*
X190285714Y-94156723D02*
X190238095Y-94251961D01*
X190238095Y-94251961D02*
X190142857Y-94347200D01*
X190142857Y-94347200D02*
X190000000Y-94394819D01*
X190000000Y-94394819D02*
X189761905Y-94394819D01*
X191285714Y-94394819D02*
X190714286Y-94394819D01*
X191000000Y-94394819D02*
X191000000Y-93394819D01*
X191000000Y-93394819D02*
X190904762Y-93537676D01*
X190904762Y-93537676D02*
X190809524Y-93632914D01*
X190809524Y-93632914D02*
X190714286Y-93680533D01*
X199339580Y-94146666D02*
X199387200Y-94194285D01*
X199387200Y-94194285D02*
X199434819Y-94337142D01*
X199434819Y-94337142D02*
X199434819Y-94432380D01*
X199434819Y-94432380D02*
X199387200Y-94575237D01*
X199387200Y-94575237D02*
X199291961Y-94670475D01*
X199291961Y-94670475D02*
X199196723Y-94718094D01*
X199196723Y-94718094D02*
X199006247Y-94765713D01*
X199006247Y-94765713D02*
X198863390Y-94765713D01*
X198863390Y-94765713D02*
X198672914Y-94718094D01*
X198672914Y-94718094D02*
X198577676Y-94670475D01*
X198577676Y-94670475D02*
X198482438Y-94575237D01*
X198482438Y-94575237D02*
X198434819Y-94432380D01*
X198434819Y-94432380D02*
X198434819Y-94337142D01*
X198434819Y-94337142D02*
X198482438Y-94194285D01*
X198482438Y-94194285D02*
X198530057Y-94146666D01*
X199434819Y-93194285D02*
X199434819Y-93765713D01*
X199434819Y-93479999D02*
X198434819Y-93479999D01*
X198434819Y-93479999D02*
X198577676Y-93575237D01*
X198577676Y-93575237D02*
X198672914Y-93670475D01*
X198672914Y-93670475D02*
X198720533Y-93765713D01*
D10*
%TO.C,U1*%
X213900000Y-64020000D02*
X213900000Y-85820000D01*
X204700000Y-64020000D02*
X213900000Y-64020000D01*
X213900000Y-85820000D02*
X204700000Y-85820000D01*
X204700000Y-85820000D02*
X204700000Y-64020000D01*
D12*
%TO.C,R1*%
X194670000Y-94707064D02*
X194670000Y-93252936D01*
X196490000Y-94707064D02*
X196490000Y-93252936D01*
%TO.C,J1*%
X185350000Y-75055000D02*
X185050000Y-75055000D01*
X177760000Y-75055000D02*
X183510000Y-75055000D01*
X178260000Y-76475000D02*
X177760000Y-76475000D01*
X177760000Y-76475000D02*
X177760000Y-75055000D01*
X178260000Y-87005000D02*
X178260000Y-76475000D01*
X177760000Y-87005000D02*
X178260000Y-87005000D01*
X185350000Y-88425000D02*
X185350000Y-75055000D01*
X185050000Y-88425000D02*
X185350000Y-88425000D01*
X183510000Y-88425000D02*
X177760000Y-88425000D01*
X177760000Y-88425000D02*
X177760000Y-87005000D01*
%TO.C,D2*%
X204160000Y-92295000D02*
X202240000Y-92295000D01*
X202240000Y-92295000D02*
X202240000Y-94980000D01*
X204160000Y-94980000D02*
X204160000Y-92295000D01*
%TO.C,D1*%
X194010000Y-93090000D02*
X194010000Y-89790000D01*
X194010000Y-93090000D02*
X188500000Y-93090000D01*
X194010000Y-89790000D02*
X188500000Y-89790000D01*
%TO.C,C1*%
X199925000Y-94241252D02*
X199925000Y-93718748D01*
X201395000Y-94241252D02*
X201395000Y-93718748D01*
%TD*%
M02*
